<svg id="Layer_1" data-name="Layer 1" xmlns="http://www.w3.org/2000/svg" xmlns:xlink="http://www.w3.org/1999/xlink" viewBox="0 0 345.88 330.44"><defs><style>.cls-1{fill:none;}.cls-2{clip-path:url(#clip-path);}.cls-3{fill:#ed1c24;}.cls-4{fill:#21409a;}.cls-5{fill:#fff;}.cls-6{fill:#231f20;}</style><clipPath id="clip-path" transform="translate(-379.56 -490.85)"><rect class="cls-1" x="379.56" y="490.85" width="345.88" height="330.44"/></clipPath></defs><title>ELEX2020</title><g class="cls-2"><path class="cls-3" d="M691.8,738.66a165.2,165.2,0,0,0-286.13-165.2" transform="translate(-379.56 -490.85)"/><path class="cls-4" d="M405.68,573.46A165.19,165.19,0,1,0,691.8,738.66" transform="translate(-379.56 -490.85)"/><path class="cls-5" d="M493.67,751.44A110.13,110.13,0,1,0,453.37,601a110.14,110.14,0,0,0,40.3,150.43" transform="translate(-379.56 -490.85)"/></g><path class="cls-5" d="M672.88,782.35l52.56-91-173-39.16ZM379.56,613l172.93,39.15L432.12,522Z" transform="translate(-379.56 -490.85)"/><polygon class="cls-6" points="52.69 82.71 70 67.1 65.17 89.96 85.15 101.5 62.13 103.79 57.28 126.4 47.91 105.37 24.78 107.67 42.16 92.22 32.72 71.18 52.66 82.69 52.69 82.71"/><polygon class="cls-6" points="286.37 217.62 303.67 202.01 298.84 224.88 318.82 236.41 295.8 238.7 290.94 261.3 281.57 240.27 258.44 242.58 275.84 227.12 266.39 206.09 286.32 217.6 286.37 217.62"/><g class="cls-2"><path class="cls-6" d="M594.8,690.84c-11.25,0-15.1-8.59-15.1-22.5v-24.7c0-13.9,3.85-22.33,15.1-22.33s15.09,8.43,15.09,22.33v24.7c0,13.91-3.85,22.5-15.09,22.5m0,22c25.59,0,43.33-14.93,43.33-44.07V643.2c0-28-17.74-43.91-43.33-43.91s-43.32,16-43.32,43.91v25.58c0,29.14,17.73,44.07,43.32,44.07m-96.12-21.43,16.41-14c18.62-16,26.31-28.11,26.31-42.76v-3.85c0-19.65-14.34-31.47-37.1-31.47-16.41,0-28.1,5.17-37.42,14.62L480,632c5-4.15,11.68-9.17,20.41-9.17s13.16,4.3,13.16,11.69V637c0,7.4-4.43,15.23-15.22,26l-30.62,31.21v16.39h74.08V682.84H523.37l-2.07,8.58Z" transform="translate(-379.56 -490.85)"/></g></svg>